<?xml version="1.0" encoding="utf-8"?>
<!-- Generator: Adobe Illustrator 22.0.0, SVG Export Plug-In . SVG Version: 6.00 Build 0)  -->
<svg version="1.1" id="Capa_1" xmlns="http://www.w3.org/2000/svg" xmlns:xlink="http://www.w3.org/1999/xlink" x="0px" y="0px"
	 viewBox="0 0 512 512" style="enable-background:new 0 0 512 512;" xml:space="preserve">
<style type="text/css">
	.st0{fill:#FFFFFF;}
</style>
<g>
	<path class="st0" d="M221.7,298.4c-1.7-1.1-3.4-2.3-5.1-3.5c-5.2-1.6-10.7-2.4-16.3-2.5h-0.7c-25.9,0-48.7,15.7-48.7,33.6
		c0,19.5,19.5,34.7,44.3,34.7c32.8,0,49.4-11.3,49.4-33.6c0-2.1-0.2-4.3-0.8-6.5C241.6,312,233.7,306.6,221.7,298.4z"/>
	<path class="st0" d="M203.3,230.6L203.3,230.6c6.2-0.1,11.4-2.5,15.5-7.2c6.4-7.2,9.2-19.1,7.5-31.7c-2.9-22.5-19.1-41.3-35.9-41.8
		h-0.7c-5.9,0-11.3,2.5-15.3,7.1c-6.3,7.1-8.9,18.5-7.3,31.1c2.9,22.5,19.4,42,35.9,42.5H203.3z"/>
	<path class="st0" d="M256,0C114.6,0,0,114.6,0,256s114.6,256,256,256s256-114.6,256-256S397.4,0,256,0z M226.5,380.7
		c-9.7,2.8-20.1,4.2-31.1,4.2c-12.2,0-24-1.4-34.9-4.2c-21.2-5.4-36.9-15.5-44.2-28.6c-3.2-5.7-4.8-11.7-4.8-17.9
		c0-6.4,1.5-12.9,4.6-19.4c11.6-24.8,42.3-41.4,76.2-41.4c0.3,0,0.7,0,1,0c-2.8-4.9-4.1-9.9-4.1-15.2c0-2.6,0.4-5.3,1.1-8
		c-35.6-0.8-62.2-26.9-62.2-61.2c0-24.3,19.4-47.9,47.1-57.5c8.3-2.9,16.8-4.3,25.1-4.3h76.1c2.6,0,4.9,1.7,5.7,4.1
		c0.8,2.5-0.1,5.2-2.2,6.7l-17,12.3c-1,0.7-2.2,1.1-3.5,1.1h-6.1c7.9,9.4,12.5,22.9,12.5,38c0,16.7-8.4,32.4-23.8,44.5
		c-11.9,9.2-12.3,11.8-12.3,17.1c0.1,2.9,8.4,12.4,17.5,18.8c21.2,15,29.1,29.7,29.1,54.3C276.2,349.7,256.7,371.9,226.5,380.7z
		 M392.4,256.1h-43.3v43.3c0,3.3-2.7,6-6,6h-12.3c-3.3,0-6-2.7-6-6v-43.3h-43.2c-3.3,0-6-2.7-6-6v-12.3c0-3.3,2.7-6,6-6h43.2v-43.2
		c0-3.3,2.7-6,6-6h12.3c3.3,0,6,2.7,6,6v43.2h43.2c3.3,0,6,2.7,6,6l0.1,12.3C398.4,253.4,395.7,256.1,392.4,256.1z"/>
</g>
</svg>
