<?xml version="1.0" encoding="utf-8"?>
<!-- Generator: Adobe Illustrator 22.0.0, SVG Export Plug-In . SVG Version: 6.00 Build 0)  -->
<svg version="1.1" id="Capa_1" xmlns="http://www.w3.org/2000/svg" xmlns:xlink="http://www.w3.org/1999/xlink" x="0px" y="0px"
	 viewBox="0 0 512 512" style="enable-background:new 0 0 512 512;" xml:space="preserve">
<style type="text/css">
	.st0{fill:#FFFFFF;}
</style>
<g>
	<g>
		<g>
			<path class="st0" d="M256,307.2c28.2,0,51.3-23,51.3-51.2c0-11.2-3.7-21.5-9.7-29.9c-9.3-12.9-24.4-21.4-41.5-21.4
				c-17.1,0-32.2,8.5-41.6,21.4c-6.1,8.4-9.7,18.7-9.7,29.9C204.7,284.3,227.7,307.2,256,307.2z"/>
			<polygon class="st0" points="367.9,193.3 367.9,150.3 367.9,144 361.5,144 318.5,144.1 318.7,193.5 			"/>
			<path class="st0" d="M401.6,226.1v119.2c0,31-25.2,56.3-56.3,56.3H166.7c-31,0-56.3-25.2-56.3-56.3V226.1v-59.4
				c0-31,25.2-56.3,56.3-56.3h178.6c31,0,56.3,25.2,56.3,56.3V226.1z"/>
			<path class="st0" d="M335.6,256c0,43.9-35.7,79.6-79.6,79.6s-79.6-35.7-79.6-79.6c0-10.6,2.1-20.7,5.9-29.9h-43.5v119.2
				c0,15.4,12.5,27.9,27.9,27.9h178.6c15.4,0,27.9-12.5,27.9-27.9V226.1h-43.5C333.5,235.3,335.6,245.4,335.6,256z"/>
		</g>
	</g>
</g>
</svg>
