<?xml version="1.0" encoding="utf-8"?>
<!-- Generator: Adobe Illustrator 22.0.0, SVG Export Plug-In . SVG Version: 6.00 Build 0)  -->
<svg version="1.1" id="Capa_1" xmlns="http://www.w3.org/2000/svg" xmlns:xlink="http://www.w3.org/1999/xlink" x="0px" y="0px"
	 viewBox="0 0 512 512" style="enable-background:new 0 0 512 512;" xml:space="preserve">
<style type="text/css">
	.st0{fill:#FFFFFF;}
</style>
<g>
	<path class="st0" d="M279.6,333.5c-18.9,0-36.7-10.4-42.8-22.3c0,0-10.2,41.2-12.3,49.2c-3.6,13.5-10.6,26.9-17.1,37.5
		C198,410,187.3,401,186,390c-0.4-12.3,0-26.8,3.1-40.1c3.4-14.5,22.6-97.5,22.6-97.5S206,241,206,224.1c0-26.5,15.1-46.3,33.8-46.3
		c15.9,0,23.6,12.2,23.6,26.9c0,16.4-10.2,40.8-15.5,63.5c-4.4,19,9.3,34.5,27.7,34.5c33.2,0,55.6-43.6,55.6-95.2
		c0-39.2-25.9-68.6-73-68.6c-53.2,0-86.3,40.5-86.3,85.7c0,15.6,4.5,26.6,11.6,35.1c3.2,3.9,3.7,5.5,2.5,10
		c-0.8,3.3-2.8,11.2-3.6,14.4c-1.2,4.5-4.8,6.1-8.8,4.5c-24.5-10.2-35.9-37.6-35.9-68.4c0-50.9,42-111.8,125.3-111.8
		c66.9,0,111,49.5,111,102.5C374.2,281.1,335.9,333.5,279.6,333.5z"/>
</g>
</svg>
