<?xml version="1.0" encoding="utf-8"?>
<!-- Generator: Adobe Illustrator 22.0.0, SVG Export Plug-In . SVG Version: 6.00 Build 0)  -->
<svg version="1.1" id="Capa_1" xmlns="http://www.w3.org/2000/svg" xmlns:xlink="http://www.w3.org/1999/xlink" x="0px" y="0px"
	 viewBox="0 0 512 512" style="enable-background:new 0 0 512 512;" xml:space="preserve">
<path class="st0" d="M256,0C114.6,0,0,114.6,0,256s114.6,256,256,256s256-114.6,256-256S397.4,0,256,0z M401.9,186.9
	c-2.6,117.8-76.8,199.7-189.4,204.8c-46.1,2.6-79.4-12.8-110.1-30.7c33.3,5.1,76.8-7.7,99.8-28.2c-33.3-2.6-53.8-20.5-64-48.6
	c10.2,2.6,20.5,0,28.2,0c-30.7-10.2-51.2-28.2-53.8-69.1c7.7,5.1,17.9,7.7,28.2,7.7c-23-12.8-38.4-61.4-20.5-92.2
	c33.3,35.8,74.2,66.6,140.8,71.7c-17.9-71.7,79.4-110.1,117.8-61.4c17.9-2.6,30.7-10.2,43.5-15.4c-5.1,17.9-15.4,28.2-28.2,38.4
	c12.8-2.6,25.6-5.1,35.8-10.2C427.5,166.4,414.7,176.6,401.9,186.9z"/>
</svg>
